<svg xmlns="http://www.w3.org/2000/svg" viewBox="0 0 1080 1080"><defs><style>.cls-1{isolation:isolate;}.cls-2{fill:#99adf9;}.cls-3{fill:#e1ecff;}.cls-4{fill:#738de0;}.cls-5,.cls-6{fill:#c7dcf9;}.cls-6,.cls-9{stroke:#fff;stroke-width:12px;}.cls-10,.cls-16,.cls-6,.cls-8,.cls-9{stroke-miterlimit:10;}.cls-7{fill:#1c3177;}.cls-10,.cls-16,.cls-8,.cls-9{fill:none;}.cls-8{stroke:#1c3177;stroke-width:11.69px;}.cls-16,.cls-8{stroke-linecap:round;}.cls-10,.cls-16{stroke:#738de0;}.cls-10{stroke-width:15px;}.cls-11,.cls-13{fill:#fec272;}.cls-12{fill:#fea691;}.cls-13{opacity:0.45;}.cls-13,.cls-15{mix-blend-mode:multiply;}.cls-14,.cls-15{fill:#f774b9;}.cls-15{opacity:0.21;}.cls-16{stroke-width:10px;}.cls-17{fill:#ff97c9;}</style></defs><g class="cls-1"><g id="Layer_2" data-name="Layer 2"><path class="cls-2" d="M926.17,715.52l-38.93-1.08L665.63,580.67,239.5,696.37l-100.7-2.81v20a18.72,18.72,0,0,0,8.38,15.6L403,898.56a48.27,48.27,0,0,0,40.82,5.89L916.26,759.26a13.92,13.92,0,0,0,9.91-13.69h0Z"/><path class="cls-2" d="M665.63,550.52l-526.83,143L69.26,321.29a14,14,0,0,1,10.6-16.24l503-117.57a14,14,0,0,1,17,11.09Z"/><path class="cls-3" d="M613.19,525.12,181,642.48a9.94,9.94,0,0,1-12.37-7.78L115.52,348.18A9.92,9.92,0,0,1,123,336.7L558.19,235a9.93,9.93,0,0,1,12,7.86l50.14,270.87A9.94,9.94,0,0,1,613.19,525.12Z"/><path class="cls-4" d="M916.26,729.12,443.85,874.3A48.27,48.27,0,0,1,403,868.41L138.8,693.56l526.83-143L919.39,703.69A14,14,0,0,1,916.26,729.12Z"/><path class="cls-2" d="M860.74,715.19,451.83,840.86a36.73,36.73,0,0,1-31-4.44L230.77,711.15A6.2,6.2,0,0,1,232.56,700L645.3,587.94a36.7,36.7,0,0,1,28.4,3.88L862.09,703.94A6.2,6.2,0,0,1,860.74,715.19Z"/><polygon class="cls-5" points="366.35 733.88 443.66 711.36 519.69 761.19 443.77 784.62 366.35 733.88"/><polygon class="cls-5" points="441.64 639.26 518.94 616.74 594.98 666.57 519.05 690 441.64 639.26"/><polygon class="cls-5" points="666.88 712.62 744.19 690.1 803.41 733.91 727.49 757.34 666.88 712.62"/><ellipse class="cls-6" cx="282.51" cy="444.88" rx="65.39" ry="59.81" transform="translate(-207.89 637.85) rotate(-79.06)"/><ellipse class="cls-6" cx="466.2" cy="402.5" rx="65.39" ry="59.81" transform="translate(-17.43 783.88) rotate(-79.06)"/><ellipse class="cls-7" cx="292.44" cy="448.5" rx="23.8" ry="21.77" transform="translate(-203.39 650.54) rotate(-79.06)"/><ellipse class="cls-7" cx="458.8" cy="410.12" rx="23.8" ry="21.77" transform="translate(-30.91 782.78) rotate(-79.06)"/><path class="cls-8" d="M403.11,457.85s-2.18,15.94-20.06,20.07-24.46-9.8-24.46-9.8"/><path class="cls-9" d="M341.59,431.25s23-22.27,65.53-15.12"/><line class="cls-10" x1="281.59" y1="678.33" x2="514.71" y2="831.11"/><line class="cls-10" x1="355.17" y1="653.37" x2="588.29" y2="806.15"/><line class="cls-10" x1="428.76" y1="628.41" x2="661.88" y2="781.19"/><line class="cls-10" x1="510.43" y1="613.22" x2="743.55" y2="766"/><line class="cls-10" x1="580.01" y1="584.43" x2="813.13" y2="737.21"/><line class="cls-10" x1="361.9" y1="809.88" x2="824.2" y2="667.23"/><line class="cls-10" x1="285.82" y1="757.34" x2="750.79" y2="621.89"/><rect class="cls-11" x="612.61" y="319.8" width="100.94" height="303.28" transform="matrix(0.79, 0.62, -0.62, 0.79, 432.27, -308.72)"/><path class="cls-12" d="M529.78,559.61,517.22,645.9a8.18,8.18,0,0,0,11.18,8.76l80.81-32.76Z"/><path class="cls-7" d="M521.76,614.74l-4.54,31.16a8.18,8.18,0,0,0,11.18,8.76l29.18-11.83Z"/><rect class="cls-13" x="646.05" y="320.08" width="33.87" height="302.97" transform="translate(432.32 -308.64) rotate(38.11)"/><path class="cls-14" d="M739.58,296.11h61.19A19.87,19.87,0,0,1,820.64,316v57.68a0,0,0,0,1,0,0H719.71a0,0,0,0,1,0,0V316A19.87,19.87,0,0,1,739.58,296.11Z" transform="translate(370.82 -403.92) rotate(38.11)"/><rect class="cls-5" x="703.91" y="341.84" width="100.94" height="26.36" transform="translate(379.88 -389.88) rotate(38.11)"/><path class="cls-14" d="M921.87,421.56c-16.28,1.31-29.67,6.8-38.07,19.12A22.84,22.84,0,0,1,858,449.59c-14.6-4.76-29.06-.93-41.85,8-24.21,16.92-28.75,49.94-7.39,87.47,22.28,39.17,76.35,62.52,99.51,44.1a23.77,23.77,0,0,0,2.46-2.24,17.5,17.5,0,0,1,15.25-5.2,24.65,24.65,0,0,0,3.32.28c29.59.44,57.08-49.47,51.87-95.69C976.3,443.4,951.29,419.2,921.87,421.56Z"/><path class="cls-15" d="M981.14,486.32c-4.51-40-26.59-63.78-53.42-64.87,7.33,44.38,9.85,134.15-81.28,161.2,22.68,13.55,47.85,17.62,61.8,6.52a23.77,23.77,0,0,0,2.46-2.24,17.5,17.5,0,0,1,15.25-5.2,24.65,24.65,0,0,0,3.32.28C958.86,582.45,986.35,532.54,981.14,486.32Z"/><path class="cls-16" d="M875.23,455.68s-15.19-32.91-6.91-59.91"/><path class="cls-4" d="M873.13,459.65s3.45-48,48.43-69C936.63,429,899.64,461.33,873.13,459.65Z"/><ellipse class="cls-17" cx="829.61" cy="484.62" rx="23.38" ry="12.87" transform="translate(-64.3 836.8) rotate(-51.79)"/></g></g></svg>